<svg id="Layer_1" data-name="Layer 1" xmlns="http://www.w3.org/2000/svg" viewBox="0 0 441.16 512"><defs><style>.cls-1{fill:#f83037;}.cls-2{fill:#ffc2d1;}</style></defs><title>cart</title><path class="cls-1" d="M461.7,444.53H394.92a14.89,14.89,0,1,1,0-29.77H461.7a14.89,14.89,0,0,1,0,29.77Z" transform="translate(-35.42 0)"/><path class="cls-1" d="M303.63,444.53H120.86A14.89,14.89,0,0,1,106,429.64V93.77A47,47,0,0,0,84,53.82L42.34,27.46A14.89,14.89,0,0,1,58.27,2.31L99.9,28.66a76.69,76.69,0,0,1,35.84,65.11v321H303.63a14.89,14.89,0,0,1,0,29.77Z" transform="translate(-35.42 0)"/><circle class="cls-2" cx="186.54" cy="463.38" r="33.74" transform="translate(-324.32 616.61) rotate(-85.93)"/><path class="cls-1" d="M186.54,512a48.62,48.62,0,1,1,48.62-48.62A48.67,48.67,0,0,1,186.54,512Zm0-67.47a18.85,18.85,0,1,0,18.86,18.85A18.87,18.87,0,0,0,186.54,444.53Z" transform="translate(-35.42 0)"/><circle class="cls-2" cx="359.5" cy="463.38" r="33.74"/><path class="cls-1" d="M394.92,512a48.62,48.62,0,1,1,48.62-48.62A48.67,48.67,0,0,1,394.92,512Zm0-67.47a18.85,18.85,0,1,0,18.85,18.85A18.87,18.87,0,0,0,394.92,444.53Z" transform="translate(-35.42 0)"/><path class="cls-1" d="M254.51,134a14.88,14.88,0,0,1-14.88-14.88V22.33A14.88,14.88,0,0,1,254.51,7.45H346.8a14.88,14.88,0,0,1,14.88,14.88v45.4a14.89,14.89,0,0,1-29.77,0V37.22H269.4v81.86A14.89,14.89,0,0,1,254.51,134Z" transform="translate(-35.42 0)"/><polygon class="cls-2" points="245.88 119.08 245.88 222.26 196.77 222.26 196.77 119.08 152.61 119.08 152.61 372.11 377.86 372.11 377.86 119.08 245.88 119.08"/><path class="cls-1" d="M413.28,387H188a14.88,14.88,0,0,1-14.88-14.88v-253A14.89,14.89,0,0,1,188,104.19h44.16a14.89,14.89,0,0,1,14.88,14.89v88.3h19.35v-88.3a14.89,14.89,0,0,1,14.88-14.89h132a14.89,14.89,0,0,1,14.88,14.89v253A14.88,14.88,0,0,1,413.28,387ZM202.92,357.22H398.39V134H296.19v88.3a14.89,14.89,0,0,1-14.89,14.89H232.19a14.89,14.89,0,0,1-14.89-14.89V134H202.91V357.22Z" transform="translate(-35.42 0)"/><path class="cls-1" d="M300.65,134H220.28a14.89,14.89,0,0,1,0-29.77h80.37a14.89,14.89,0,1,1,0,29.77Z" transform="translate(-35.42 0)"/></svg>